<svg width="36" height="28" viewBox="0 0 36 28" fill="none" xmlns="http://www.w3.org/2000/svg">
<path d="M35.1275 11.9112L29.3815 6.16617V2.41533C29.3815 1.84385 28.9187 1.38103 28.3477 1.38103C27.7748 1.38103 27.3119 1.84385 27.3119 2.41533V4.09808L23.5183 0.30297C23.1124 -0.10099 22.4599 -0.10099 22.0564 0.30297L17.5042 4.85469L15.6871 3.03813C15.2837 2.63417 14.6282 2.63417 14.2247 3.03813L0.30297 16.9604C-0.10099 17.3649 -0.10099 18.0188 0.30297 18.4223C0.706427 18.8268 1.36141 18.8268 1.76537 18.4223L14.9572 5.22997L28.149 18.4223C28.3503 18.623 28.6159 18.7262 28.8805 18.7262C29.1441 18.7262 29.4097 18.625 29.6109 18.4223C30.0149 18.0178 30.0149 17.3639 29.6109 16.9604L22.6601 10.0101V5.42617C22.6601 4.85469 22.1963 4.39137 21.6253 4.39137C21.0543 4.39137 20.5905 4.85469 20.5905 5.42617V7.94249L18.9661 6.3176L22.7874 2.49733L33.6646 13.3741C33.8658 13.5748 34.132 13.6769 34.3956 13.6769C34.6597 13.6769 34.9253 13.5758 35.1275 13.3741C35.5305 12.9701 35.5305 12.3156 35.1275 11.9112Z" fill="#EA2626"/>
<path d="M26.6524 18.1486L15.6881 7.18236C15.494 6.98868 15.2308 6.87952 14.9572 6.87952C14.683 6.87952 14.4199 6.98868 14.2257 7.18236L3.26043 18.1486C3.11404 18.294 3.01544 18.4801 2.9762 18.6829C2.94551 18.8403 2.93042 19.0003 2.93042 19.1567V24.5088C2.93042 25.8867 4.05175 27.0086 5.43014 27.0086H10.7813C11.474 27.0086 12.1425 26.7158 12.6149 26.2052C13.0445 25.7403 13.281 25.1387 13.281 24.5083V20.5784C13.281 19.6246 14.0119 18.8282 14.9562 18.7382C15.9004 18.8282 16.6319 19.6251 16.6319 20.5784V24.5083C16.6319 25.1387 16.8683 25.7403 17.2979 26.2052C17.7698 26.7153 18.4384 27.0081 19.1321 27.0081H24.4847C25.8631 27.0081 26.9844 25.8867 26.9844 24.5083V19.1572C26.9844 19.0003 26.9698 18.8398 26.9381 18.6829C26.8969 18.4801 26.7988 18.294 26.6524 18.1486Z" fill="#EA2626"/>
</svg>
